<?xml version="1.0" standalone="no"?>
<!DOCTYPE svg PUBLIC "-//W3C//DTD SVG 20010904//EN"
 "http://www.w3.org/TR/2001/REC-SVG-20010904/DTD/svg10.dtd">
<svg version="1.0" xmlns="http://www.w3.org/2000/svg"
 width="300.000000pt" height="300.000000pt" viewBox="0 0 300.000000 300.000000"
 preserveAspectRatio="xMidYMid meet">
<metadata>
Created by potrace 1.10, written by Peter Selinger 2001-2011
</metadata>
<g transform="translate(0.000000,300.000000) scale(0.100000,-0.100000)"
fill="#000000" stroke="none">
<path d="M2500 2976 c-30 -6 -71 -20 -90 -30 -34 -18 -1361 -1332 -1401 -1388
-20 -27 -199 -653 -199 -695 0 -29 37 -63 68 -63 14 0 172 41 351 90 l326 91
688 687 c600 599 692 695 718 748 22 44 29 72 27 100 l-3 39 -42 -85 c-42 -85
-45 -88 -721 -764 -374 -374 -686 -682 -694 -686 -31 -18 -638 -179 -651 -174
-9 3 -18 12 -21 20 -5 14 52 233 140 539 l34 120 678 678 c750 750 736 738
859 740 100 1 155 -25 250 -116 69 -67 92 -96 126 -167 l42 -85 3 39 c5 64
-44 150 -139 241 -120 115 -222 150 -349 121z"/>
<path d="M2501 2868 c-39 -13 -136 -99 -156 -138 -12 -24 -12 -30 4 -56 28
-43 345 -354 362 -354 41 0 148 115 168 179 28 94 7 154 -88 254 -40 42 -88
86 -106 97 -39 24 -137 34 -184 18z m145 -43 c48 -20 159 -128 184 -180 40
-82 21 -158 -62 -242 l-51 -52 -179 177 -178 177 61 58 c82 76 148 94 225 62z"/>
<path d="M280 2684 c-30 -8 -73 -26 -96 -39 -93 -54 -174 -182 -174 -272 0
-48 11 -36 49 58 39 93 92 151 176 190 l61 29 380 -2 c362 -3 379 -4 382 -22
2 -10 -2 -22 -10 -27 -7 -5 -173 -9 -368 -9 -335 0 -358 -2 -400 -21 -72 -32
-106 -65 -139 -130 l-31 -62 0 -1026 c0 -1010 1 -1027 21 -1071 25 -55 80
-114 134 -143 l40 -22 1085 -3 c780 -2 1100 0 1138 8 71 16 139 71 174 141
l26 54 7 365 c5 293 9 368 20 379 11 12 17 12 29 1 14 -11 16 -60 16 -374 0
-204 -4 -376 -10 -396 -28 -103 -117 -192 -235 -236 -48 -18 -99 -19 -1110
-21 -938 -3 -1067 -1 -1119 13 -147 39 -225 108 -276 246 -28 77 -44 86 -38
21 10 -103 85 -207 190 -264 l63 -34 1155 0 1155 0 57 28 c72 35 131 95 171
172 l32 60 3 392 c2 254 -1 399 -7 412 -15 28 -63 42 -92 27 -47 -23 -49 -38
-49 -424 0 -404 0 -402 -68 -468 -70 -68 -10 -65 -1218 -62 l-1089 3 -40 22
c-51 27 -89 68 -109 117 -14 34 -16 148 -16 1060 0 973 1 1023 19 1061 10 22
34 54 52 72 64 60 83 63 479 63 346 0 358 1 384 21 31 25 34 66 7 100 l-19 24
-369 2 c-299 2 -378 -1 -423 -13z"/>
<path d="M1688 2082 c-465 -465 -548 -551 -548 -575 0 -24 29 -58 163 -192 89
-89 174 -170 190 -180 27 -17 28 -17 65 8 48 34 1055 1044 1071 1075 7 13 10
34 7 45 -3 12 -83 100 -179 195 -129 128 -180 172 -198 172 -18 0 -149 -125
-571 -548z m749 342 l176 -176 -546 -546 -547 -547 -177 178 -178 177 545 545
c300 300 546 545 548 545 2 0 82 -79 179 -176z"/>
<path d="M1083 1385 c-11 -8 -25 -27 -31 -42 -19 -48 -92 -317 -92 -340 0 -12
11 -31 25 -41 l26 -20 107 29 c59 16 138 38 177 48 84 24 122 58 104 94 -17
31 -233 249 -267 269 -25 15 -31 15 -49 3z m290 -302 c-195 -55 -377 -103
-379 -100 -2 2 19 82 46 178 27 95 50 183 50 194 0 14 41 -22 145 -125 80 -80
142 -146 138 -147z"/>
</g>
</svg>
