<?xml version="1.0" standalone="no"?>
<!DOCTYPE svg PUBLIC "-//W3C//DTD SVG 20010904//EN"
 "http://www.w3.org/TR/2001/REC-SVG-20010904/DTD/svg10.dtd">
<svg version="1.0" xmlns="http://www.w3.org/2000/svg"
 width="512.000000pt" height="512.000000pt" viewBox="0 0 512.000000 512.000000"
 preserveAspectRatio="xMidYMid meet">

<g transform="translate(0.000000,512.000000) scale(0.100000,-0.100000)"
fill="#000000" stroke="none" id="manSym">
<path d="M2453 4192 c-139 -49 -221 -175 -211 -326 8 -117 71 -211 178 -267
44 -23 53 -24 368 -29 l322 -5 -123 -123 -124 -124 -82 41 c-305 154 -686 178
-1003 65 -726 -260 -1070 -1080 -743 -1771 148 -313 430 -565 753 -673 153
-51 241 -64 417 -65 184 0 305 22 459 81 364 140 651 441 769 809 48 148 60
229 60 400 0 220 -37 384 -130 569 l-44 89 123 124 123 123 5 -322 c5 -312 6
-325 28 -370 119 -242 460 -242 579 0 l28 57 0 750 0 750 -27 51 c-40 76 -70
107 -140 145 l-63 34 -735 2 c-685 2 -738 1 -787 -15z m1512 -141 c48 -22 69
-44 90 -94 13 -31 15 -129 15 -736 0 -470 -3 -709 -11 -728 -25 -67 -96 -115
-169 -115 -66 0 -117 27 -151 81 l-29 45 0 398 0 399 -25 24 c-50 51 -60 44
-302 -198 -177 -176 -223 -228 -223 -249 0 -14 18 -57 40 -94 354 -607 82
-1387 -575 -1647 -240 -95 -535 -103 -780 -21 -284 95 -534 311 -668 579 -117
235 -149 548 -82 800 109 413 439 735 852 831 287 66 609 15 855 -136 84 -52
77 -56 325 193 242 242 249 252 198 302 l-24 25 -396 0 c-430 0 -423 -1 -477
57 -86 90 -57 231 57 284 38 17 81 19 740 19 658 0 702 -2 740 -19z"/>
<path d="M2057 3005 c-392 -75 -667 -404 -667 -799 0 -233 81 -428 242 -583
170 -162 381 -243 608 -230 216 12 400 96 546 249 151 157 224 342 224 566 0
436 -337 787 -775 807 -65 3 -127 -1 -178 -10z m271 -141 c255 -52 453 -236
521 -484 26 -91 28 -247 6 -335 -47 -186 -190 -364 -355 -443 -266 -126 -562
-81 -766 118 -138 134 -204 292 -204 485 0 174 57 325 172 449 163 178 398
257 626 210z"/>
</g>
</svg>
