<?xml version="1.0" standalone="no"?>
<!DOCTYPE svg PUBLIC "-//W3C//DTD SVG 20010904//EN"
 "http://www.w3.org/TR/2001/REC-SVG-20010904/DTD/svg10.dtd">
<svg version="1.0" xmlns="http://www.w3.org/2000/svg"
 width="300.000000pt" height="300.000000pt" viewBox="0 0 300.000000 300.000000"
 preserveAspectRatio="xMidYMid meet">
<metadata>
Created by potrace 1.10, written by Peter Selinger 2001-2011
</metadata>
<g transform="translate(0.000000,300.000000) scale(0.100000,-0.100000)"
fill="#000000" stroke="none">
<path d="M1206 2969 c-111 -27 -220 -82 -277 -139 -37 -37 -52 -62 -68 -115
-12 -37 -21 -78 -21 -91 l0 -24 -245 0 c-161 0 -253 -4 -269 -11 -32 -15 -59
-70 -50 -104 3 -14 20 -36 36 -50 l30 -25 1148 0 c870 0 1155 3 1175 12 27 12
55 54 55 83 0 29 -28 71 -55 83 -18 8 -101 12 -264 12 l-238 0 -7 53 c-20 156
-134 257 -354 313 -86 22 -114 24 -306 23 -174 0 -225 -4 -290 -20z m535 -30
c221 -54 329 -126 363 -240 9 -29 16 -60 16 -69 0 -10 9 -29 21 -44 l20 -26
227 0 c248 0 275 -5 280 -52 2 -18 -4 -31 -20 -42 -20 -14 -134 -16 -1153 -16
-1019 0 -1133 2 -1153 16 -16 11 -22 24 -20 42 5 47 32 52 285 52 l232 0 20
26 c12 15 21 34 21 44 0 9 7 40 16 69 33 112 145 187 359 240 173 43 314 43
486 0z"/>
<path d="M1267 2834 c-134 -29 -229 -83 -258 -148 -24 -53 -24 -81 1 -106 19
-19 33 -20 490 -20 457 0 471 1 490 20 25 25 25 60 0 110 -33 65 -128 117
-262 144 -100 21 -365 20 -461 0z m455 -39 c40 -8 106 -31 146 -51 73 -35 91
-56 106 -116 l6 -28 -480 0 -480 0 6 28 c19 77 90 127 230 161 102 25 357 28
466 6z"/>
<path d="M579 2201 l-29 -30 2 -988 3 -988 22 -40 c43 -82 145 -153 205 -143
21 4 21 5 -11 24 -93 53 -127 83 -153 134 l-28 52 0 960 c0 642 3 966 10 979
12 22 62 26 79 6 7 -10 11 -289 13 -963 3 -928 3 -950 23 -983 11 -19 33 -43
48 -55 28 -21 32 -21 737 -21 705 0 709 0 737 21 15 12 37 36 48 55 20 33 20
55 23 983 2 668 6 954 14 963 16 20 66 16 78 -7 7 -13 10 -323 8 -987 l-3
-968 -27 -46 c-26 -43 -59 -71 -150 -123 -31 -19 -31 -20 -10 -24 64 -10 168
66 208 153 l24 50 0 978 0 979 -29 29 c-37 37 -79 38 -120 3 l-31 -26 0 -949
c0 -1017 1 -1002 -49 -1028 -14 -8 -231 -11 -722 -11 -760 0 -741 -2 -754 53
-3 12 -7 451 -8 975 l-2 954 -33 29 c-43 39 -84 39 -123 0z"/>
<path d="M1043 2218 c-55 -26 -54 -5 -51 -913 l3 -837 33 -29 c43 -39 84 -39
123 0 l29 29 0 852 0 852 -29 29 c-31 31 -68 37 -108 17z m87 -57 c7 -13 10
-295 10 -845 0 -813 0 -826 -20 -846 -24 -24 -32 -25 -59 -3 l-22 18 1 834 c0
599 3 838 11 848 17 20 67 16 79 -6z"/>
<path d="M1439 2201 l-29 -29 0 -852 0 -852 29 -29 c37 -37 79 -38 120 -3 l31
26 0 858 0 858 -31 26 c-41 35 -83 34 -120 -3z m101 -40 c7 -13 10 -297 10
-850 l0 -831 -25 -16 c-23 -15 -27 -15 -50 0 l-25 16 0 831 c0 553 3 837 10
850 7 12 21 19 40 19 19 0 33 -7 40 -19z"/>
<path d="M1849 2201 l-29 -29 0 -852 0 -852 29 -29 c47 -47 117 -34 146 26 13
29 15 134 15 855 0 721 -2 826 -15 855 -29 60 -99 73 -146 26z m99 -33 c9 -9
12 -211 12 -849 l0 -838 -22 -15 c-29 -20 -34 -20 -58 4 -20 20 -20 33 -20
846 0 550 3 832 10 845 12 22 59 26 78 7z"/>
</g>
</svg>
