<?xml version="1.0" standalone="no"?>
<!DOCTYPE svg PUBLIC "-//W3C//DTD SVG 20010904//EN"
 "http://www.w3.org/TR/2001/REC-SVG-20010904/DTD/svg10.dtd">
<svg version="1.0" xmlns="http://www.w3.org/2000/svg"
 width="512.000000pt" height="512.000000pt" viewBox="0 0 512.000000 512.000000"
 preserveAspectRatio="xMidYMid meet">

<g transform="translate(0.000000,512.000000) scale(0.100000,-0.100000)"
fill="#000000" stroke="none" id="womSym">
<path d="M2315 4300 c-490 -99 -864 -454 -991 -945 -27 -103 -29 -123 -29
-305 0 -182 2 -202 28 -303 85 -325 270 -586 542 -763 131 -85 267 -143 408
-174 l57 -13 0 -104 0 -103 -183 0 c-214 0 -254 -9 -317 -72 -109 -109 -79
-290 59 -360 54 -28 57 -28 247 -28 l193 0 3 -163 c3 -162 3 -164 33 -213 19
-30 49 -60 79 -79 42 -25 59 -30 116 -30 57 0 74 5 116 30 30 19 60 49 79 79
30 49 30 51 33 213 l3 163 192 0 c182 0 195 1 244 24 140 66 173 254 63 364
-63 63 -103 72 -317 72 l-183 0 0 103 0 104 58 13 c429 95 792 432 926 859 46
146 59 248 53 426 -5 167 -27 285 -79 415 -165 419 -539 725 -973 795 -125 21
-346 18 -460 -5z m470 -139 c430 -89 762 -406 876 -838 27 -101 37 -339 19
-451 -16 -104 -61 -240 -110 -336 -161 -314 -452 -531 -805 -601 -118 -23
-115 -17 -115 -248 0 -258 -24 -237 267 -237 246 0 270 -5 292 -58 16 -37 5
-77 -26 -102 -24 -19 -41 -20 -255 -20 l-229 0 -24 -25 c-25 -24 -25 -26 -25
-214 0 -186 -1 -190 -24 -218 -34 -39 -98 -39 -132 0 -23 28 -24 32 -24 218 0
188 0 190 -25 214 l-24 25 -229 0 c-214 0 -231 1 -255 20 -31 25 -42 65 -26
102 22 53 46 58 290 58 293 0 269 -21 269 236 0 231 2 226 -113 249 -238 48
-431 149 -592 310 -175 173 -288 391 -325 627 -18 112 -8 350 19 451 114 429
444 747 871 838 119 25 335 25 455 0z"/>
<path d="M2371 3985 c-190 -42 -331 -117 -470 -249 -125 -120 -205 -253 -258
-423 -25 -81 -27 -101 -27 -263 0 -162 2 -182 27 -263 53 -170 133 -303 258
-423 119 -114 235 -181 396 -231 81 -25 101 -27 263 -27 162 0 182 2 263 27
161 50 277 117 396 231 125 120 205 253 258 423 25 81 27 101 27 263 0 162 -2
182 -27 263 -32 104 -83 210 -142 292 -49 69 -169 187 -235 232 -104 70 -252
131 -374 152 -82 15 -278 12 -355 -4z m434 -159 c260 -88 440 -269 532 -531
26 -75 28 -90 27 -245 0 -154 -2 -171 -28 -245 -120 -348 -416 -565 -773 -565
-171 0 -310 40 -446 130 -182 119 -319 321 -356 524 -15 83 -13 248 4 329 53
253 233 469 477 575 119 51 183 62 343 58 121 -2 151 -7 220 -30z"/>
</g>
</svg>
